<svg id="Layer_1" enable-background="new 0 0 512 512" height="512" viewBox="0 0 512 512" width="512" xmlns="http://www.w3.org/2000/svg" xmlns:xlink="http://www.w3.org/1999/xlink"><linearGradient id="SVGID_1_" gradientUnits="userSpaceOnUse" x1="256" x2="256" y1="0" y2="512"><stop offset="0" stop-color="#2af598"/><stop offset="1" stop-color="#009efd"/></linearGradient><path d="m258.018 228c16.569 0 30 13.431 30 30s-13.431 30-30 30-30-13.431-30-30 13.431-30 30-30zm-45.045 183.325 23.55-35.795c-30.936-4.857-58.016-21.481-76.51-45.128l35.421-18.902-18.832-35.289-35.694 19.048c-4.237-12.316-6.544-25.522-6.544-39.259 0-13.422 2.2-26.339 6.253-38.414l35.985 19.203 18.832-35.289-35.969-19.195c18.405-23.894 45.521-40.744 76.553-45.752v39.447h40v-39.229c30.699 5.303 57.473 22.209 75.624 46.03l-34.04 18.165 18.832 35.289 33.865-18.072c1.9 5.761 3.382 11.711 4.402 17.816h40.422c-1.594-12.811-4.708-25.156-9.14-36.858l42.909-22.898c3.164 1.135 6.572 1.757 10.126 1.757 16.569 0 30-13.431 30-30s-13.431-30-30-30c-14.185 0-26.062 9.848-29.188 23.077l-42.568 22.716c-8.473-12.085-18.559-22.96-29.949-32.304l25.975-42.151c13.558-2.884 23.729-14.921 23.729-29.339 0-16.569-13.431-30-30-30s-30 13.431-30 30c0 3.309.543 6.488 1.533 9.465l-25.062 40.669c-14.747-6.916-30.711-11.648-47.47-13.804v-43.974c6.136-5.493 10-13.471 10-22.355 0-16.569-13.431-30-30-30s-30 13.431-30 30c0 8.884 3.864 16.862 10 22.355v43.811c-15.095 1.816-29.556 5.721-43.079 11.431l-22.343-38.461c.92-2.881 1.422-5.95 1.422-9.136 0-16.569-13.431-30-30-30s-30 13.431-30 30c0 14.549 10.357 26.675 24.1 29.417l22.197 38.21c-13.245 10.038-24.897 22.072-34.499 35.655l-41.61-22.205c-3.127-13.229-15.004-23.077-29.188-23.077-16.569 0-30 13.431-30 30s13.431 30 30 30c3.554 0 6.962-.622 10.126-1.757l41.82 22.317c-4.55 11.874-7.738 24.416-9.359 37.44h-43.232c-5.493-6.136-13.471-10-22.355-10-16.569 0-30 13.431-30 30s13.431 30 30 30c8.884 0 16.862-3.864 22.355-10h43.232c1.659 13.327 4.955 26.152 9.677 38.271l-42.552 22.706c-3.327-1.273-6.937-1.977-10.712-1.977-16.569 0-30 13.431-30 30s13.431 30 30 30c13.967 0 25.704-9.545 29.045-22.467l43.269-23.09c8.774 12.265 19.225 23.253 31.015 32.625l-26.51 42.387c-14.098 2.456-24.819 14.744-24.819 29.545 0 16.569 13.431 30 30 30s30-13.431 30-30c0-2.927-.427-5.753-1.209-8.428l26.697-42.685c7.535 3.391 15.373 6.227 23.467 8.438zm139.045 100.675h40v-40h-40zm0-63.111h40v-71.889h-40zm153.458-3.662-.145-.234-96.492-146.666c-8.009-12.735-21.749-20.327-36.821-20.327s-28.813 7.592-36.822 20.326l-96.34 146.437-.296.464c-8.328 13.451-8.686 30.452-.934 44.368 7.698 13.82 22.229 22.405 37.922 22.405h36.47v-40h-36.47c-1.285 0-2.287-.629-2.978-1.87-.499-.896-.907-2.255-.083-3.708l96.256-146.308.296-.464c.678-1.095 1.681-1.65 2.979-1.65s2.301.556 2.979 1.65l.145.234 96.407 146.537c.824 1.453.416 2.813-.083 3.708-.691 1.241-1.693 1.87-2.978 1.87h-36.47v40h36.47c15.693 0 30.225-8.585 37.922-22.405 7.752-13.915 7.394-30.916-.934-44.367z" fill="url(#SVGID_1_)"/></svg>